<svg height="42" width="331" viewBox="0 0 331 42" xmlns="http://www.w3.org/2000/svg" data-logo="logo">
        <g transform="translate(0, 0.5)&#10;    rotate(0 25 20.5)" id="logogram" style="opacity: 1;"><path fill="#FF0A0A" d="M37.8473 40.43C44.2801 40.2989 49.4526 35.0373 49.4526 28.5688C49.4526 25.4231 48.2038 22.4061 45.9809 20.1818L26.2421 0.429993V12.707C26.2421 14.7603 27.0573 16.7295 28.5082 18.1814L33.1321 22.8084L33.1448 22.8207L40.8979 30.5789C41.1497 30.8309 41.1497 31.2394 40.8979 31.4913C40.6461 31.7433 40.2379 31.7433 39.9861 31.4913L37.3136 28.8171H12.5917L9.91919 31.4913C9.6674 31.7433 9.25918 31.7433 9.00739 31.4913C8.75561 31.2394 8.75561 30.8309 9.00739 30.5789L16.7605 22.8207L16.7732 22.8084L21.3971 18.1814C22.848 16.7295 23.6631 14.7603 23.6631 12.707V0.429993L3.92439 20.1818C1.70146 22.4061 0.452637 25.4231 0.452637 28.5688C0.452637 35.0373 5.62516 40.2989 12.058 40.43H37.8473Z"/></g>
        <g transform="translate(56, 6.859999999999999)" id="logotype" style="opacity: 1;"><path d="M11.18 6.44Q9.61 6.44 8.61 5.51Q7.61 4.58 7.61 3.22L7.61 3.22Q7.61 1.82 8.61 0.89Q9.61-0.04 11.18-0.04L11.18-0.04Q12.72-0.04 13.72 0.89Q14.72 1.82 14.72 3.22L14.72 3.22Q14.72 4.58 13.72 5.51Q12.72 6.44 11.18 6.44L11.18 6.44ZM8.17 8.47L14.16 8.47L14.16 28L8.17 28L8.17 8.47ZM30.40 8.26Q33.83 8.26 35.87 10.48Q37.92 12.70 37.92 16.59L37.92 16.59L37.92 28L31.97 28L31.97 17.39Q31.97 15.43 30.96 14.35Q29.94 13.26 28.23 13.26L28.23 13.26Q26.51 13.26 25.50 14.35Q24.48 15.43 24.48 17.39L24.48 17.39L24.48 28L18.50 28L18.50 8.47L24.48 8.47L24.48 11.06Q25.39 9.76 26.93 9.01Q28.47 8.26 30.40 8.26L30.40 8.26ZM50.84 22.93L52.97 22.93L52.97 28L49.93 28Q46.67 28 44.85 26.41Q43.03 24.81 43.03 21.21L43.03 21.21L43.03 13.44L40.65 13.44L40.65 8.47L43.03 8.47L43.03 3.71L49.02 3.71L49.02 8.47L52.94 8.47L52.94 13.44L49.02 13.44L49.02 21.28Q49.02 22.16 49.44 22.54Q49.86 22.93 50.84 22.93L50.84 22.93ZM74.71 17.92Q74.71 18.76 74.60 19.67L74.60 19.67L61.06 19.67Q61.20 21.49 62.23 22.45Q63.26 23.41 64.77 23.41L64.77 23.41Q67.01 23.41 67.88 21.52L67.88 21.52L74.25 21.52Q73.76 23.45 72.48 24.99Q71.21 26.53 69.28 27.41Q67.36 28.28 64.98 28.28L64.98 28.28Q62.11 28.28 59.87 27.05Q57.63 25.83 56.37 23.55Q55.11 21.28 55.11 18.23L55.11 18.23Q55.11 15.19 56.35 12.91Q57.59 10.64 59.83 9.41Q62.07 8.19 64.98 8.19L64.98 8.19Q67.81 8.19 70.02 9.38Q72.22 10.57 73.46 12.77Q74.71 14.98 74.71 17.92L74.71 17.92ZM61.09 16.34L68.58 16.34Q68.58 14.80 67.53 13.89Q66.48 12.98 64.91 12.98L64.91 12.98Q63.40 12.98 62.37 13.86Q61.34 14.73 61.09 16.34L61.09 16.34ZM77.86 2.10L83.84 2.10L83.84 28L77.86 28L77.86 2.10ZM88.18 2.10L94.17 2.10L94.17 28L88.18 28L88.18 2.10ZM101.52 6.44Q99.94 6.44 98.94 5.51Q97.95 4.58 97.95 3.22L97.95 3.22Q97.95 1.82 98.94 0.89Q99.94-0.04 101.52-0.04L101.52-0.04Q103.06-0.04 104.05 0.89Q105.05 1.82 105.05 3.22L105.05 3.22Q105.05 4.58 104.05 5.51Q103.06 6.44 101.52 6.44L101.52 6.44ZM98.51 8.47L104.49 8.47L104.49 28L98.51 28L98.51 8.47ZM116.78 28.28Q114.22 28.28 112.23 27.41Q110.23 26.53 109.08 25.01Q107.92 23.48 107.78 21.59L107.78 21.59L113.70 21.59Q113.80 22.61 114.64 23.24Q115.48 23.87 116.71 23.87L116.71 23.87Q117.83 23.87 118.44 23.43Q119.05 22.99 119.05 22.29L119.05 22.29Q119.05 21.45 118.18 21.05Q117.30 20.65 115.34 20.16L115.34 20.16Q113.24 19.67 111.84 19.13Q110.44 18.59 109.43 17.41Q108.41 16.24 108.41 14.24L108.41 14.24Q108.41 12.56 109.34 11.18Q110.27 9.80 112.07 8.99Q113.87 8.19 116.36 8.19L116.36 8.19Q120.03 8.19 122.15 10.01Q124.27 11.83 124.58 14.84L124.58 14.84L119.05 14.84Q118.91 13.82 118.16 13.23Q117.41 12.63 116.18 12.63L116.18 12.63Q115.13 12.63 114.57 13.04Q114.01 13.44 114.01 14.14L114.01 14.14Q114.01 14.98 114.90 15.40Q115.80 15.82 117.69 16.24L117.69 16.24Q119.86 16.80 121.22 17.34Q122.59 17.88 123.62 19.09Q124.65 20.30 124.69 22.33L124.69 22.33Q124.69 24.04 123.72 25.39Q122.76 26.74 120.96 27.51Q119.16 28.28 116.78 28.28L116.78 28.28ZM146.77 17.92Q146.77 18.76 146.67 19.67L146.67 19.67L133.12 19.67Q133.26 21.49 134.29 22.45Q135.33 23.41 136.83 23.41L136.83 23.41Q139.07 23.41 139.95 21.52L139.95 21.52L146.32 21.52Q145.83 23.45 144.55 24.99Q143.27 26.53 141.35 27.41Q139.42 28.28 137.04 28.28L137.04 28.28Q134.17 28.28 131.93 27.05Q129.69 25.83 128.43 23.55Q127.17 21.28 127.17 18.23L127.17 18.23Q127.17 15.19 128.41 12.91Q129.66 10.64 131.90 9.41Q134.14 8.19 137.04 8.19L137.04 8.19Q139.88 8.19 142.08 9.38Q144.29 10.57 145.53 12.77Q146.77 14.98 146.77 17.92L146.77 17.92ZM133.16 16.34L140.65 16.34Q140.65 14.80 139.60 13.89Q138.55 12.98 136.97 12.98L136.97 12.98Q135.47 12.98 134.43 13.86Q133.40 14.73 133.16 16.34L133.16 16.34ZM148.73 18.20Q148.73 15.19 149.87 12.91Q151.00 10.64 152.97 9.41Q154.93 8.19 157.34 8.19L157.34 8.19Q159.41 8.19 160.96 9.03Q162.52 9.87 163.36 11.23L163.36 11.23L163.36 8.47L169.34 8.47L169.34 28L163.36 28L163.36 25.23Q162.49 26.60 160.93 27.44Q159.37 28.28 157.31 28.28L157.31 28.28Q154.93 28.28 152.97 27.04Q151.00 25.80 149.87 23.50Q148.73 21.21 148.73 18.20L148.73 18.20ZM163.36 18.23Q163.36 15.99 162.12 14.70Q160.88 13.40 159.09 13.40L159.09 13.40Q157.31 13.40 156.06 14.68Q154.82 15.96 154.82 18.20L154.82 18.20Q154.82 20.44 156.06 21.75Q157.31 23.06 159.09 23.06L159.09 23.06Q160.88 23.06 162.12 21.77Q163.36 20.48 163.36 18.23L163.36 18.23ZM179.67 11.72Q180.72 10.11 182.29 9.19Q183.87 8.26 185.79 8.26L185.79 8.26L185.79 14.59L184.15 14.59Q181.91 14.59 180.79 15.56Q179.67 16.52 179.67 18.93L179.67 18.93L179.67 28L173.68 28L173.68 8.47L179.67 8.47L179.67 11.72ZM187.47 18.23Q187.47 15.19 188.72 12.91Q189.96 10.64 192.18 9.41Q194.40 8.19 197.27 8.19L197.27 8.19Q200.95 8.19 203.42 10.11Q205.88 12.04 206.65 15.54L206.65 15.54L200.28 15.54Q199.48 13.30 197.17 13.30L197.17 13.30Q195.52 13.30 194.54 14.58Q193.56 15.85 193.56 18.23L193.56 18.23Q193.56 20.61 194.54 21.89Q195.52 23.17 197.17 23.17L197.17 23.17Q199.48 23.17 200.28 20.93L200.28 20.93L206.65 20.93Q205.88 24.36 203.40 26.32Q200.91 28.28 197.27 28.28L197.27 28.28Q194.40 28.28 192.18 27.05Q189.96 25.83 188.72 23.55Q187.47 21.28 187.47 18.23L187.47 18.23ZM221.84 8.26Q225.20 8.26 227.23 10.48Q229.26 12.70 229.26 16.59L229.26 16.59L229.26 28L223.31 28L223.31 17.39Q223.31 15.43 222.30 14.35Q221.28 13.26 219.57 13.26L219.57 13.26Q217.85 13.26 216.84 14.35Q215.82 15.43 215.82 17.39L215.82 17.39L215.82 28L209.84 28L209.84 2.10L215.82 2.10L215.82 11.09Q216.73 9.80 218.31 9.03Q219.88 8.26 221.84 8.26L221.84 8.26ZM236.23 28.28Q234.66 28.28 233.66 27.35Q232.66 26.43 232.66 25.06L232.66 25.06Q232.66 23.66 233.66 22.71Q234.66 21.77 236.23 21.77L236.23 21.77Q237.77 21.77 238.77 22.71Q239.76 23.66 239.76 25.06L239.76 25.06Q239.76 26.43 238.77 27.35Q237.77 28.28 236.23 28.28L236.23 28.28ZM242.11 18.20Q242.11 15.19 243.25 12.91Q244.38 10.64 246.34 9.41Q248.31 8.19 250.72 8.19L250.72 8.19Q252.78 8.19 254.34 9.03Q255.90 9.87 256.74 11.23L256.74 11.23L256.74 8.47L262.73 8.47L262.73 28L256.74 28L256.74 25.23Q255.87 26.60 254.31 27.44Q252.75 28.28 250.69 28.28L250.69 28.28Q248.31 28.28 246.34 27.04Q244.38 25.80 243.25 23.50Q242.11 21.21 242.11 18.20L242.11 18.20ZM256.74 18.23Q256.74 15.99 255.50 14.70Q254.25 13.40 252.47 13.40L252.47 13.40Q250.69 13.40 249.44 14.68Q248.20 15.96 248.20 18.20L248.20 18.20Q248.20 20.44 249.44 21.75Q250.69 23.06 252.47 23.06L252.47 23.06Q254.25 23.06 255.50 21.77Q256.74 20.48 256.74 18.23L256.74 18.23ZM270.07 6.44Q268.50 6.44 267.50 5.51Q266.50 4.58 266.50 3.22L266.50 3.22Q266.50 1.82 267.50 0.89Q268.50-0.04 270.07-0.04L270.07-0.04Q271.62-0.04 272.61 0.89Q273.61 1.82 273.61 3.22L273.61 3.22Q273.61 4.58 272.61 5.51Q271.62 6.44 270.07 6.44L270.07 6.44ZM267.06 8.47L273.05 8.47L273.05 28L267.06 28L267.06 8.47Z" fill="#FD2C2E"/></g>
        
      </svg>